<svg width="154" height="21" viewBox="0 0 154 21" fill="none" xmlns="http://www.w3.org/2000/svg">
<path d="M25.4838 9.016H28.2998V6.136H29.4518V9.016H32.2678V10.168H29.4518V13.048H28.2998V10.168H25.4838V9.016ZM34.6819 15L38.6979 5.624L39.4019 4.84L38.4579 4.984H33.8979V3.8H40.5859V4.232L35.9779 15H34.6819ZM48.6789 18.52C48.1882 18.008 47.7722 17.4427 47.4309 16.824C47.0895 16.216 46.8122 15.592 46.5989 14.952C46.3962 14.3013 46.2469 13.6507 46.1509 13C46.0549 12.3387 46.0069 11.7093 46.0069 11.112C46.0069 10.5253 46.0549 9.90667 46.1509 9.256C46.2469 8.60533 46.4015 7.95467 46.6149 7.304C46.8282 6.64267 47.1055 5.99733 47.4469 5.368C47.7989 4.73867 48.2255 4.152 48.7269 3.608L49.4949 4.168C49.0682 4.712 48.7109 5.27733 48.4229 5.864C48.1455 6.44 47.9215 7.02667 47.7509 7.624C47.5802 8.22133 47.4575 8.81867 47.3829 9.416C47.3189 10.0027 47.2869 10.568 47.2869 11.112C47.2869 11.624 47.3242 12.184 47.3989 12.792C47.4842 13.3893 47.6122 13.992 47.7829 14.6C47.9642 15.1973 48.1935 15.784 48.4709 16.36C48.7589 16.936 49.1002 17.4587 49.4949 17.928L48.6789 18.52ZM50.3633 7.192C50.3633 6.68 50.4379 6.20533 50.5872 5.768C50.7366 5.33067 50.9553 4.952 51.2433 4.632C51.5313 4.312 51.8886 4.06133 52.3153 3.88C52.7526 3.69867 53.2593 3.608 53.8353 3.608C54.9233 3.608 55.7713 3.96 56.3793 4.664C56.9873 5.368 57.2913 6.36 57.2913 7.64C57.2913 8.84533 57.1526 9.90133 56.8753 10.808C56.6086 11.704 56.2353 12.4613 55.7553 13.08C55.2753 13.6987 54.7046 14.184 54.0433 14.536C53.3926 14.8773 52.6833 15.096 51.9153 15.192L51.6273 14.168C52.2459 14.072 52.8006 13.8907 53.2913 13.624C53.7926 13.3573 54.2193 13.0213 54.5713 12.616C54.9339 12.2107 55.2273 11.752 55.4513 11.24C55.6753 10.7173 55.8299 10.152 55.9153 9.544C55.6273 9.88533 55.3073 10.1253 54.9553 10.264C54.6139 10.392 54.1606 10.456 53.5953 10.456C53.1579 10.456 52.7419 10.3867 52.3473 10.248C51.9633 10.0987 51.6219 9.88533 51.3233 9.608C51.0246 9.33067 50.7899 8.98933 50.6193 8.584C50.4486 8.17867 50.3633 7.71467 50.3633 7.192ZM51.6913 7.064C51.6913 7.82133 51.8886 8.392 52.2833 8.776C52.6886 9.14933 53.2166 9.336 53.8673 9.336C54.3899 9.336 54.8379 9.25067 55.2113 9.08C55.5846 8.90933 55.8513 8.68533 56.0113 8.408C56.0326 8.26933 56.0433 8.14667 56.0433 8.04C56.0433 7.93333 56.0433 7.82133 56.0433 7.704C56.0433 7.32 55.9953 6.952 55.8993 6.6C55.8139 6.23733 55.6806 5.91733 55.4993 5.64C55.3179 5.352 55.0779 5.128 54.7793 4.968C54.4913 4.808 54.1499 4.728 53.7552 4.728C53.1046 4.728 52.5979 4.936 52.2353 5.352C51.8726 5.75733 51.6913 6.328 51.6913 7.064ZM58.938 9.4C58.938 7.48 59.2473 6.03467 59.866 5.064C60.4953 4.09333 61.4073 3.608 62.602 3.608C63.8927 3.608 64.826 4.088 65.402 5.048C65.9887 5.99733 66.282 7.448 66.282 9.4C66.282 11.32 65.9673 12.7653 65.338 13.736C64.7193 14.7067 63.8073 15.192 62.602 15.192C61.3327 15.192 60.4047 14.6853 59.818 13.672C59.2313 12.6587 58.938 11.2347 58.938 9.4ZM60.266 9.4C60.266 10.0933 60.3087 10.728 60.394 11.304C60.49 11.8693 60.634 12.36 60.826 12.776C61.018 13.1813 61.258 13.5013 61.546 13.736C61.8447 13.96 62.1967 14.072 62.602 14.072C63.4127 14.072 64.0047 13.6987 64.378 12.952C64.762 12.1947 64.954 11.0107 64.954 9.4C64.954 8.71733 64.9113 8.088 64.826 7.512C64.7513 6.936 64.618 6.44 64.426 6.024C64.2447 5.608 64.0047 5.288 63.706 5.064C63.4073 4.84 63.0393 4.728 62.602 4.728C61.802 4.728 61.21 5.10667 60.826 5.864C60.4527 6.62133 60.266 7.8 60.266 9.4ZM70.3768 14.072C71.1128 14.072 71.7208 13.8587 72.2008 13.432C72.6808 13.0053 72.9208 12.3867 72.9208 11.576C72.9208 10.7973 72.6808 10.216 72.2008 9.832C71.7314 9.448 71.0808 9.256 70.2488 9.256L68.9048 9.336V3.8H73.8968V4.984H70.1048V8.168L70.7928 8.136C71.8488 8.14667 72.6808 8.44 73.2888 9.016C73.8968 9.592 74.2008 10.4187 74.2008 11.496C74.2008 12.0933 74.0994 12.6267 73.8968 13.096C73.6941 13.5547 73.4168 13.9387 73.0648 14.248C72.7234 14.5573 72.3181 14.792 71.8488 14.952C71.3794 15.112 70.8781 15.192 70.3448 15.192C69.8648 15.192 69.4594 15.1653 69.1288 15.112C68.7981 15.0587 68.4888 14.9787 68.2008 14.872L68.5368 13.784C68.7821 13.88 69.0434 13.9547 69.3207 14.008C69.6088 14.0507 69.9608 14.072 70.3768 14.072ZM76.5355 3.608C77.0262 4.12 77.4422 4.68533 77.7835 5.304C78.1248 5.912 78.3968 6.54133 78.5995 7.192C78.8128 7.832 78.9675 8.48267 79.0635 9.144C79.1595 9.79467 79.2075 10.4187 79.2075 11.016C79.2075 11.6027 79.1595 12.2213 79.0635 12.872C78.9675 13.5227 78.8128 14.1787 78.5995 14.84C78.3862 15.4907 78.1035 16.1307 77.7515 16.76C77.4102 17.3893 76.9888 17.976 76.4875 18.52L75.7195 17.96C76.1462 17.416 76.5035 16.8507 76.7915 16.264C77.0795 15.6773 77.3035 15.0853 77.4635 14.488C77.6342 13.8907 77.7515 13.2987 77.8155 12.712C77.8902 12.1253 77.9275 11.56 77.9275 11.016C77.9275 10.504 77.8848 9.94933 77.7995 9.352C77.7142 8.75467 77.5808 8.152 77.3995 7.544C77.2288 6.936 77.0048 6.344 76.7275 5.768C76.4502 5.192 76.1142 4.66933 75.7195 4.2L76.5355 3.608ZM87.8455 14.072C88.5815 14.072 89.1895 13.8587 89.6695 13.432C90.1495 13.0053 90.3895 12.3867 90.3895 11.576C90.3895 10.7973 90.1495 10.216 89.6695 9.832C89.2002 9.448 88.5495 9.256 87.7175 9.256L86.3735 9.336V3.8H91.3655V4.984H87.5735V8.168L88.2615 8.136C89.3175 8.14667 90.1495 8.44 90.7575 9.016C91.3655 9.592 91.6695 10.4187 91.6695 11.496C91.6695 12.0933 91.5682 12.6267 91.3655 13.096C91.1628 13.5547 90.8855 13.9387 90.5335 14.248C90.1922 14.5573 89.7868 14.792 89.3175 14.952C88.8482 15.112 88.3468 15.192 87.8135 15.192C87.3335 15.192 86.9282 15.1653 86.5975 15.112C86.2668 15.0587 85.9575 14.9787 85.6695 14.872L86.0055 13.784C86.2508 13.88 86.5122 13.9547 86.7895 14.008C87.0775 14.0507 87.4295 14.072 87.8455 14.072ZM101.54 11.56H99.6523V15H98.4043V11.56H93.4763V11.032L98.7883 3.624H99.6523V10.44H101.54V11.56ZM98.4043 6.952L98.5643 5.64H98.5163L97.9563 6.728L95.7003 9.784L94.9323 10.568L96.0523 10.44H98.4043V6.952ZM105.619 14.072C105.982 14.072 106.318 14.0187 106.627 13.912C106.936 13.8053 107.203 13.6507 107.427 13.448C107.651 13.2347 107.827 12.984 107.955 12.696C108.083 12.408 108.147 12.0933 108.147 11.752C108.147 11.0053 107.923 10.4507 107.475 10.088C107.038 9.72533 106.43 9.544 105.651 9.544H104.467V9.08L106.771 5.528L107.507 4.824L106.467 4.984H103.299V3.8H109.011V4.264L106.467 8.088L105.907 8.552V8.584L106.451 8.472C106.878 8.48267 107.272 8.56267 107.635 8.712C107.998 8.85067 108.312 9.05867 108.579 9.336C108.846 9.60267 109.054 9.928 109.203 10.312C109.352 10.6853 109.427 11.112 109.427 11.592C109.427 12.168 109.326 12.68 109.123 13.128C108.92 13.576 108.643 13.9547 108.291 14.264C107.95 14.5627 107.544 14.792 107.075 14.952C106.606 15.112 106.11 15.192 105.587 15.192C105.107 15.192 104.675 15.1547 104.291 15.08C103.907 15.0053 103.571 14.9093 103.283 14.792L103.619 13.656C103.864 13.7733 104.152 13.8747 104.483 13.96C104.824 14.0347 105.203 14.072 105.619 14.072ZM121.995 6.344C121.995 6.90933 121.889 7.49067 121.675 8.088C121.473 8.67467 121.201 9.26667 120.859 9.864C120.529 10.4613 120.155 11.048 119.739 11.624C119.323 12.1893 118.907 12.728 118.491 13.24L117.707 13.928V13.992L118.731 13.816H122.219V15H115.851V14.536C116.086 14.2907 116.369 13.9867 116.699 13.624C117.03 13.2613 117.371 12.8613 117.723 12.424C118.086 11.976 118.438 11.5067 118.779 11.016C119.131 10.5147 119.446 10.008 119.723 9.496C120.011 8.984 120.241 8.47733 120.411 7.976C120.582 7.47467 120.667 7 120.667 6.552C120.667 6.02933 120.518 5.59733 120.219 5.256C119.921 4.904 119.467 4.728 118.859 4.728C118.454 4.728 118.059 4.81333 117.675 4.984C117.291 5.144 116.961 5.33067 116.683 5.544L116.155 4.632C116.529 4.312 116.971 4.06133 117.483 3.88C117.995 3.69867 118.545 3.608 119.131 3.608C119.59 3.608 119.995 3.67733 120.347 3.816C120.699 3.944 120.998 4.13067 121.243 4.376C121.489 4.62133 121.675 4.91467 121.803 5.256C121.931 5.58667 121.995 5.94933 121.995 6.344ZM127.322 14.072C127.685 14.072 128.021 14.0187 128.33 13.912C128.639 13.8053 128.906 13.6507 129.13 13.448C129.354 13.2347 129.53 12.984 129.658 12.696C129.786 12.408 129.85 12.0933 129.85 11.752C129.85 11.0053 129.626 10.4507 129.178 10.088C128.741 9.72533 128.133 9.544 127.354 9.544H126.17V9.08L128.474 5.528L129.21 4.824L128.17 4.984H125.002V3.8H130.714V4.264L128.17 8.088L127.61 8.552V8.584L128.154 8.472C128.581 8.48267 128.975 8.56267 129.338 8.712C129.701 8.85067 130.015 9.05867 130.282 9.336C130.549 9.60267 130.757 9.928 130.906 10.312C131.055 10.6853 131.13 11.112 131.13 11.592C131.13 12.168 131.029 12.68 130.826 13.128C130.623 13.576 130.346 13.9547 129.994 14.264C129.653 14.5627 129.247 14.792 128.778 14.952C128.309 15.112 127.813 15.192 127.29 15.192C126.81 15.192 126.378 15.1547 125.994 15.08C125.61 15.0053 125.274 14.9093 124.986 14.792L125.322 13.656C125.567 13.7733 125.855 13.8747 126.186 13.96C126.527 14.0347 126.906 14.072 127.322 14.072ZM144.947 11.56H143.059V15H141.811V11.56H136.883V11.032L142.195 3.624H143.059V10.44H144.947V11.56ZM141.811 6.952L141.971 5.64H141.923L141.363 6.728L139.107 9.784L138.339 10.568L139.459 10.44H141.811V6.952ZM148.689 14.072C149.425 14.072 150.033 13.8587 150.513 13.432C150.993 13.0053 151.233 12.3867 151.233 11.576C151.233 10.7973 150.993 10.216 150.513 9.832C150.044 9.448 149.393 9.256 148.561 9.256L147.217 9.336V3.8H152.209V4.984H148.417V8.168L149.105 8.136C150.161 8.14667 150.993 8.44 151.601 9.016C152.209 9.592 152.513 10.4187 152.513 11.496C152.513 12.0933 152.412 12.6267 152.209 13.096C152.007 13.5547 151.729 13.9387 151.377 14.248C151.036 14.5573 150.631 14.792 150.161 14.952C149.692 15.112 149.191 15.192 148.657 15.192C148.177 15.192 147.772 15.1653 147.441 15.112C147.111 15.0587 146.801 14.9787 146.513 14.872L146.849 13.784C147.095 13.88 147.356 13.9547 147.633 14.008C147.921 14.0507 148.273 14.072 148.689 14.072Z" fill="#999999"/>
<g clip-path="url(#clip0_10080_2222)">
<path d="M13.75 1.25H6.25C5.55937 1.25 5 1.80937 5 2.5V17.5C5 18.1906 5.55937 18.75 6.25 18.75H13.75C14.4406 18.75 15 18.1906 15 17.5V2.5C15 1.80937 14.4406 1.25 13.75 1.25ZM10 17.5C9.655 17.5 9.375 17.22 9.375 16.875C9.375 16.53 9.655 16.25 10 16.25C10.345 16.25 10.625 16.53 10.625 16.875C10.625 17.22 10.345 17.5 10 17.5ZM13.75 15.625H6.25V3.125H13.75V15.625Z" fill="#999999"/>
</g>
<defs>
<clipPath id="clip0_10080_2222">
<rect width="20" height="20" fill="white"/>
</clipPath>
</defs>
</svg>
